<svg xmlns="http://www.w3.org/2000/svg" xmlns:xlink="http://www.w3.org/1999/xlink" width="224pt" height="409pt" viewBox="0.00 0.00 224.00 409.00">
<g id="graph0" class="graph" transform="scale(1 1) rotate(0) translate(4 405.01)">
<title>G</title>
<polygon fill="white" stroke="none" points="-4,4 -4,-405.01 220,-405.01 220,4 -4,4"/>
<g id="clust1" class="cluster">
<title>cluster_0</title>
<polygon fill="lightgrey" stroke="lightgrey" points="8,-64.21 8,-357.01 98,-357.01 98,-64.21 8,-64.21"/>
<text xml:space="preserve" text-anchor="middle" x="53" y="-340.41" font-family="Times,serif" font-size="14.00">process #1</text>
</g>
<g id="clust2" class="cluster">
<title>cluster_1</title>
<polygon fill="none" stroke="blue" points="133,-64.21 133,-357.01 208,-357.01 208,-64.21 133,-64.21"/>
<text xml:space="preserve" text-anchor="middle" x="170.5" y="-340.41" font-family="Times,serif" font-size="14.00">process #2</text>
</g>
<!-- a0 -->
<g id="node1" class="node">
<title>a0</title>
<ellipse fill="white" stroke="white" cx="63" cy="-306.21" rx="27" ry="18"/>
<text xml:space="preserve" text-anchor="middle" x="63" y="-302.01" font-family="Times,serif" font-size="14.00">a0</text>
</g>
<!-- a1 -->
<g id="node2" class="node">
<title>a1</title>
<ellipse fill="white" stroke="white" cx="63" cy="-234.21" rx="27" ry="18"/>
<text xml:space="preserve" text-anchor="middle" x="63" y="-230.01" font-family="Times,serif" font-size="14.00">a1</text>
</g>
<!-- a0&#45;&gt;a1 -->
<g id="edge1" class="edge">
<title>a0-&gt;a1</title>
<path fill="none" stroke="black" d="M63,-287.91C63,-280.62 63,-271.94 63,-263.75"/>
<polygon fill="black" stroke="black" points="66.5,-263.83 63,-253.83 59.5,-263.83 66.5,-263.83"/>
</g>
<!-- a2 -->
<g id="node3" class="node">
<title>a2</title>
<ellipse fill="white" stroke="white" cx="63" cy="-162.21" rx="27" ry="18"/>
<text xml:space="preserve" text-anchor="middle" x="63" y="-158.01" font-family="Times,serif" font-size="14.00">a2</text>
</g>
<!-- a1&#45;&gt;a2 -->
<g id="edge2" class="edge">
<title>a1-&gt;a2</title>
<path fill="none" stroke="black" d="M63,-215.91C63,-208.62 63,-199.94 63,-191.75"/>
<polygon fill="black" stroke="black" points="66.5,-191.83 63,-181.83 59.5,-191.83 66.5,-191.83"/>
</g>
<!-- b3 -->
<g id="node8" class="node">
<title>b3</title>
<ellipse fill="lightgrey" stroke="black" cx="168" cy="-90.21" rx="27" ry="18"/>
<text xml:space="preserve" text-anchor="middle" x="168" y="-86.01" font-family="Times,serif" font-size="14.00">b3</text>
</g>
<!-- a1&#45;&gt;b3 -->
<g id="edge9" class="edge">
<title>a1-&gt;b3</title>
<path fill="none" stroke="black" d="M74.64,-217.47C92.87,-192.82 128.3,-144.91 149.88,-115.71"/>
<polygon fill="black" stroke="black" points="152.6,-117.93 155.73,-107.81 146.97,-113.77 152.6,-117.93"/>
</g>
<!-- a3 -->
<g id="node4" class="node">
<title>a3</title>
<ellipse fill="white" stroke="white" cx="63" cy="-90.21" rx="27" ry="18"/>
<text xml:space="preserve" text-anchor="middle" x="63" y="-86.01" font-family="Times,serif" font-size="14.00">a3</text>
</g>
<!-- a2&#45;&gt;a3 -->
<g id="edge3" class="edge">
<title>a2-&gt;a3</title>
<path fill="none" stroke="black" d="M63,-143.91C63,-136.62 63,-127.94 63,-119.75"/>
<polygon fill="black" stroke="black" points="66.5,-119.83 63,-109.83 59.5,-119.83 66.5,-119.83"/>
</g>
<!-- a3&#45;&gt;a0 -->
<g id="edge11" class="edge">
<title>a3-&gt;a0</title>
<path fill="none" stroke="black" d="M49.25,-106.15C41.04,-116.11 31.38,-129.97 27,-144.21 12.89,-190.09 12.89,-206.33 27,-252.21 30.18,-262.57 36.15,-272.71 42.33,-281.31"/>
<polygon fill="black" stroke="black" points="39.45,-283.3 48.33,-289.08 44.99,-279.03 39.45,-283.3"/>
</g>
<!-- end -->
<g id="node10" class="node">
<title>end</title>
<polygon fill="none" stroke="black" points="133.11,-36.21 96.89,-36.21 96.89,0 133.11,0 133.11,-36.21"/>
<polyline fill="none" stroke="black" points="108.89,-36.21 96.89,-24.21"/>
<polyline fill="none" stroke="black" points="96.89,-12 108.89,0"/>
<polyline fill="none" stroke="black" points="121.11,0 133.11,-12"/>
<polyline fill="none" stroke="black" points="133.11,-24.21 121.11,-36.21"/>
<text xml:space="preserve" text-anchor="middle" x="115" y="-13.91" font-family="Times,serif" font-size="14.00">end</text>
</g>
<!-- a3&#45;&gt;end -->
<g id="edge12" class="edge">
<title>a3-&gt;end</title>
<path fill="none" stroke="black" d="M74.54,-73.65C80.64,-65.43 88.31,-55.09 95.32,-45.64"/>
<polygon fill="black" stroke="black" points="97.98,-47.93 101.13,-37.81 92.36,-43.76 97.98,-47.93"/>
</g>
<!-- b0 -->
<g id="node5" class="node">
<title>b0</title>
<ellipse fill="lightgrey" stroke="black" cx="168" cy="-306.21" rx="27" ry="18"/>
<text xml:space="preserve" text-anchor="middle" x="168" y="-302.01" font-family="Times,serif" font-size="14.00">b0</text>
</g>
<!-- b1 -->
<g id="node6" class="node">
<title>b1</title>
<ellipse fill="lightgrey" stroke="black" cx="170" cy="-234.21" rx="27" ry="18"/>
<text xml:space="preserve" text-anchor="middle" x="170" y="-230.01" font-family="Times,serif" font-size="14.00">b1</text>
</g>
<!-- b0&#45;&gt;b1 -->
<g id="edge4" class="edge">
<title>b0-&gt;b1</title>
<path fill="none" stroke="black" d="M168.49,-287.91C168.7,-280.62 168.95,-271.94 169.18,-263.75"/>
<polygon fill="black" stroke="black" points="172.68,-263.93 169.47,-253.83 165.68,-263.73 172.68,-263.93"/>
</g>
<!-- b2 -->
<g id="node7" class="node">
<title>b2</title>
<ellipse fill="lightgrey" stroke="black" cx="173" cy="-162.21" rx="27" ry="18"/>
<text xml:space="preserve" text-anchor="middle" x="173" y="-158.01" font-family="Times,serif" font-size="14.00">b2</text>
</g>
<!-- b1&#45;&gt;b2 -->
<g id="edge5" class="edge">
<title>b1-&gt;b2</title>
<path fill="none" stroke="black" d="M170.74,-215.91C171.05,-208.62 171.43,-199.94 171.78,-191.75"/>
<polygon fill="black" stroke="black" points="175.27,-191.97 172.2,-181.83 168.28,-191.67 175.27,-191.97"/>
</g>
<!-- b2&#45;&gt;a3 -->
<g id="edge10" class="edge">
<title>b2-&gt;a3</title>
<path fill="none" stroke="black" d="M153.84,-149.02C136.65,-138.08 111.18,-121.87 91.58,-109.4"/>
<polygon fill="black" stroke="black" points="93.53,-106.5 83.22,-104.08 89.78,-112.4 93.53,-106.5"/>
</g>
<!-- b2&#45;&gt;b3 -->
<g id="edge6" class="edge">
<title>b2-&gt;b3</title>
<path fill="none" stroke="black" d="M171.76,-143.91C171.24,-136.62 170.62,-127.94 170.04,-119.75"/>
<polygon fill="black" stroke="black" points="173.53,-119.55 169.33,-109.83 166.55,-120.05 173.53,-119.55"/>
</g>
<!-- b3&#45;&gt;end -->
<g id="edge13" class="edge">
<title>b3-&gt;end</title>
<path fill="none" stroke="black" d="M156.24,-73.65C150.02,-65.43 142.21,-55.09 135.06,-45.64"/>
<polygon fill="black" stroke="black" points="137.96,-43.67 129.13,-37.8 132.37,-47.89 137.96,-43.67"/>
</g>
<!-- start -->
<g id="node9" class="node">
<title>start</title>
<polygon fill="none" stroke="black" points="115,-401.01 75.88,-383.01 115,-365.01 154.12,-383.01 115,-401.01"/>
<polyline fill="none" stroke="black" points="86.78,-388.03 86.78,-378"/>
<polyline fill="none" stroke="black" points="104.1,-370.03 125.9,-370.03"/>
<polyline fill="none" stroke="black" points="143.22,-378 143.22,-388.03"/>
<polyline fill="none" stroke="black" points="125.9,-396 104.1,-396"/>
<text xml:space="preserve" text-anchor="middle" x="115" y="-378.81" font-family="Times,serif" font-size="14.00">start</text>
</g>
<!-- start&#45;&gt;a0 -->
<g id="edge7" class="edge">
<title>start-&gt;a0</title>
<path fill="none" stroke="black" d="M105.94,-368.98C98.92,-358.88 88.97,-344.57 80.41,-332.26"/>
<polygon fill="black" stroke="black" points="83.38,-330.4 74.8,-324.19 77.63,-334.4 83.38,-330.4"/>
</g>
<!-- start&#45;&gt;b0 -->
<g id="edge8" class="edge">
<title>start-&gt;b0</title>
<path fill="none" stroke="black" d="M124.23,-368.98C131.39,-358.88 141.53,-344.57 150.25,-332.26"/>
<polygon fill="black" stroke="black" points="153.05,-334.36 155.98,-324.18 147.34,-330.32 153.05,-334.36"/>
</g>
</g>
</svg>